<svg width="1023" height="965" viewBox="0 0 1023 965" fill="none" xmlns="http://www.w3.org/2000/svg">
<path opacity="0.5" d="M318.337 17.6821C198.401 95.0004 179.815 241.204 98.5871 349.063C70.3109 386.595 33.7742 420.184 14.7116 461.82C-29.053 557.121 31.1796 665.225 111.799 740.917C150.241 777.026 195.144 810.107 249.473 825.327C291.252 837.032 336.049 837.519 380.025 837.824L1150.47 843.92C1236.49 844.591 1332.07 842.173 1393.92 791.088C1436.54 755.914 1453.86 704.544 1468.55 655.512C1486.61 595.262 1502.97 529.831 1474.88 472.447C1442.79 406.793 1361.64 369.587 1311.23 312.934C1229.42 221.148 1231.3 82.3206 1127.12 9.04607C1078.48 -25.1528 1014.31 -38.5641 951.771 -45.2697C833.874 -57.9292 722.199 -34.0327 606.42 -37.3652C507.454 -40.21 400.438 -35.2519 318.337 17.6821Z" fill="#E7ECFF"/>
<path opacity="0.24" d="M624.077 680.936C588.466 684.517 551.763 688.454 520.426 705.969C516.232 708.318 511.973 711.089 509.659 715.318C505.015 723.824 510.286 735.036 518.466 740.156C526.645 745.276 536.737 745.859 546.363 746.28C717.764 753.749 889.423 750.817 1060.97 747.9C1110.79 747.058 1161.39 746.086 1209.13 731.617C1217.71 729.025 1227.15 725.136 1230.38 716.662C1234.6 705.58 1224.96 693.299 1213.71 689.848C1202.46 686.397 1190.46 688.973 1178.83 690.48C1138.43 695.713 1097.67 687.709 1057.45 681.309C978.707 668.801 897.008 658.626 817.253 656.73C790.063 656.098 766.842 665.528 740.23 669.255C701.807 674.666 662.709 677.048 624.077 680.936Z" fill="#505F98"/>
<path d="M484 348.75L572.803 167.88L625.692 193.779L536.89 374.649L484 348.75Z" fill="white"/>
<path d="M504.581 343.176L515.402 321.069L551.024 338.459L540.204 360.566L504.581 343.176Z" fill="#505F98"/>
<path d="M504.581 343.176L515.402 321.069L551.024 338.459L540.204 360.566L504.581 343.176Z" fill="url(#paint0_linear_108_1327)"/>
<path d="M515.403 321.241L526.224 299.135L561.846 316.524L551.026 338.631L515.403 321.241Z" fill="#505F98"/>
<path d="M515.403 321.241L526.224 299.135L561.846 316.524L551.026 338.631L515.403 321.241Z" fill="url(#paint1_linear_108_1327)"/>
<path d="M526.211 299.3L537.031 277.193L572.654 294.583L561.833 316.69L526.211 299.3Z" fill="#505F98"/>
<path d="M526.211 299.3L537.031 277.193L572.654 294.583L561.833 316.69L526.211 299.3Z" fill="url(#paint2_linear_108_1327)"/>
<path d="M537.049 277.382L547.869 255.275L583.491 272.665L572.671 294.772L537.049 277.382Z" fill="#505F98"/>
<path d="M537.049 277.382L547.869 255.275L583.491 272.665L572.671 294.772L537.049 277.382Z" fill="url(#paint3_linear_108_1327)"/>
<path d="M547.863 255.426L558.683 233.319L594.306 250.709L583.486 272.816L547.863 255.426Z" fill="#505F98"/>
<path d="M558.685 233.508L569.505 211.401L605.128 228.791L594.308 250.898L558.685 233.508Z" fill="#505F98"/>
<path d="M569.492 211.567L580.313 189.46L615.935 206.85L605.115 228.956L569.492 211.567Z" fill="#505F98"/>
<path d="M557.468 236.259L568.288 214.152L603.91 231.542L593.09 253.649L557.468 236.259Z" fill="url(#paint4_linear_108_1327)"/>
<path d="M568.297 214.31L579.117 192.203L614.739 209.593L603.919 231.7L568.297 214.31Z" fill="url(#paint5_linear_108_1327)"/>
<rect x="798.693" y="592.3" width="75.1854" height="62.8667" fill="#505F98"/>
<rect x="798.693" y="592.3" width="75.1854" height="62.8667" fill="url(#paint6_linear_108_1327)"/>
<rect x="639.115" y="330.1" width="397.409" height="272.167" rx="9.37" fill="#505F98"/>
<path opacity="0.65" d="M1023.48 352.669V578.164C1023.49 581.906 1022.02 585.499 1019.38 588.151C1016.74 590.803 1013.16 592.296 1009.42 592.3H663.148C659.41 592.291 655.83 590.797 653.193 588.146C650.557 585.495 649.08 581.905 649.089 578.164V352.669C649.08 348.929 650.557 345.338 653.193 342.687C655.83 340.036 659.41 338.542 663.148 338.533H1009.42C1013.16 338.538 1016.74 340.03 1019.38 342.682C1022.02 345.334 1023.49 348.927 1023.48 352.669Z" fill="url(#paint7_linear_108_1327)"/>
<rect x="764.168" y="647.5" width="158.043" height="16.1" fill="#505F98"/>
<rect x="798.693" y="638.3" width="75.1854" height="9.2" fill="url(#paint8_linear_108_1327)"/>
<path fill-rule="evenodd" clip-rule="evenodd" d="M917.608 198.418V214.114L907.864 214.195C906.917 221.498 904.138 228.448 899.785 234.406L908.107 242.969L896.699 253.894L888.506 245.443C883.455 248.881 877.755 251.264 871.75 252.448V262.633H855.979V252.689C849.244 251.716 842.825 249.214 837.219 245.379L830.368 252.142L819.202 240.896L826.005 234.261C821.722 228.301 818.991 221.38 818.055 214.114H807.132V198.418H818.443C819.845 192.172 822.602 186.305 826.522 181.228L820.204 174.721L831.612 163.796L838.075 170.496C843.419 166.964 849.494 164.674 855.85 163.796V153H871.621V164.037C878.037 165.308 884.1 167.945 889.395 171.765L897.474 163.861L908.575 175.01L900.496 183.043C903.664 187.705 905.912 192.922 907.121 198.418H917.608ZM836.233 208.315C836.215 222.928 848.116 234.79 862.814 234.807C869.876 234.829 876.657 232.053 881.656 227.094C886.656 222.135 889.464 215.401 889.46 208.379C889.478 193.765 877.577 181.904 862.879 181.886C848.181 181.869 836.251 193.701 836.233 208.315Z" fill="#505F98"/>
<path fill-rule="evenodd" clip-rule="evenodd" d="M975.915 224.572L975.211 233.803L969.452 233.452C968.588 237.698 966.668 241.658 963.868 244.968L968.364 250.383L961.196 256.292L956.78 250.974C953.672 252.766 950.233 253.912 946.669 254.344L946.205 260.333L936.974 259.647L937.422 253.801C933.523 252.931 929.877 251.176 926.766 248.674L922.447 252.347L916.415 245.303L920.687 241.694C918.442 238.005 917.15 233.817 916.927 229.507L910.703 229.028L911.391 219.812L917.999 220.307C919.09 216.699 920.951 213.369 923.455 210.548L920.047 206.443L927.214 200.533L930.686 204.75C933.961 202.906 937.607 201.815 941.357 201.556L941.837 195.167L951.069 195.853L950.573 202.354C954.258 203.381 957.676 205.196 960.588 207.673L965.66 203.376L971.675 210.42L966.556 214.781C968.217 217.66 969.303 220.833 969.756 224.124L975.915 224.572ZM927.847 226.786C927.192 235.367 933.626 242.856 942.221 243.515C946.357 243.84 950.452 242.506 953.599 239.808C956.746 237.11 958.686 233.27 958.988 229.14C959.634 220.558 953.192 213.077 944.596 212.427C936 211.777 928.503 218.205 927.847 226.786Z" fill="#505F98"/>
<path d="M1023.48 352.727V357.7H649.089V352.727C649.08 348.971 650.557 345.366 653.194 342.704C655.83 340.042 659.411 338.542 663.149 338.533H1009.42C1013.16 338.538 1016.74 340.036 1019.38 342.699C1022.02 345.362 1023.49 348.97 1023.48 352.727Z" fill="url(#paint9_linear_108_1327)"/>
<rect x="656.761" y="382.233" width="36.0583" height="174.033" fill="url(#paint10_linear_108_1327)"/>
<rect x="747.29" y="394.5" width="169.551" height="160.233" fill="url(#paint11_linear_108_1327)"/>
<rect x="786.417" y="469.633" width="5.37039" height="6.9" fill="url(#paint12_linear_108_1327)"/>
<rect x="786.417" y="437.433" width="5.37039" height="6.9" fill="url(#paint13_linear_108_1327)"/>
<rect x="713.534" y="469.633" width="5.37039" height="6.9" fill="url(#paint14_linear_108_1327)"/>
<rect x="713.534" y="437.433" width="5.37039" height="6.9" fill="url(#paint15_linear_108_1327)"/>
<rect x="786.417" y="402.933" width="5.37039" height="6.9" fill="url(#paint16_linear_108_1327)"/>
<rect x="714.301" y="402.933" width="5.37039" height="6.9" fill="url(#paint17_linear_108_1327)"/>
<rect x="751.126" y="402.933" width="5.37039" height="6.9" fill="url(#paint18_linear_108_1327)"/>
<rect x="751.126" y="469.633" width="5.37039" height="6.9" fill="url(#paint19_linear_108_1327)"/>
<path fill-rule="evenodd" clip-rule="evenodd" d="M723.507 468.1H783.349V412.133H723.507V468.1ZM777.321 462.183H729.535V418.003H777.321V462.183Z" fill="#505F98"/>
<path fill-rule="evenodd" clip-rule="evenodd" d="M723.507 468.1H783.349V412.133H723.507V468.1ZM777.321 462.183H729.535V418.003H777.321V462.183Z" fill="url(#paint20_linear_108_1327)"/>
<rect x="941.391" y="366.9" width="76.7198" height="76.6667" fill="url(#paint21_linear_108_1327)"/>
<rect x="941.391" y="451.233" width="76.7198" height="76.6667" fill="url(#paint22_linear_108_1327)"/>
<rect opacity="0.65" x="656.761" y="381.467" width="36.0583" height="9.96667" fill="url(#paint23_linear_108_1327)"/>
<path d="M501.1 329.2L658.365 203.058L695.251 248.924L537.986 375.066L501.1 329.2Z" fill="white"/>
<path d="M523.121 332.749L542.34 317.247L567.32 348.133L548.101 363.635L523.121 332.749Z" fill="#505F98"/>
<path d="M523.121 332.749L542.34 317.247L567.32 348.133L548.101 363.635L523.121 332.749Z" fill="url(#paint24_linear_108_1327)"/>
<path d="M541.228 317.595L560.42 302.163L585.286 333.006L566.095 348.438L541.228 317.595Z" fill="#505F98"/>
<path d="M541.228 317.595L560.42 302.163L585.286 333.006L566.095 348.438L541.228 317.595Z" fill="url(#paint25_linear_108_1327)"/>
<path d="M560.352 302.317L579.543 286.885L604.41 317.728L585.219 333.16L560.352 302.317Z" fill="#505F98"/>
<path d="M560.352 302.317L579.543 286.885L604.41 317.728L585.219 333.16L560.352 302.317Z" fill="url(#paint26_linear_108_1327)"/>
<path d="M579.463 287.049L598.654 271.617L623.521 302.46L604.33 317.892L579.463 287.049Z" fill="#505F98"/>
<path d="M579.463 287.049L598.654 271.617L623.521 302.46L604.33 317.892L579.463 287.049Z" fill="url(#paint27_linear_108_1327)"/>
<path d="M599.489 271.365L618.707 255.863L643.687 286.75L624.468 302.252L599.489 271.365Z" fill="#505F98"/>
<path d="M618.717 255.726L637.935 240.224L662.915 271.111L643.697 286.613L618.717 255.726Z" fill="#505F98"/>
<path d="M636.816 241.206L656.007 225.774L680.874 256.617L661.682 272.049L636.816 241.206Z" fill="#505F98"/>
<path d="M659.83 274.301L643.654 287.167L619.168 256.333L635.344 243.467L659.83 274.301Z" fill="url(#paint28_linear_108_1327)"/>
<path d="M634.549 243.196L653.74 227.765L678.607 258.608L659.415 274.04L634.549 243.196Z" fill="url(#paint29_linear_108_1327)"/>
<path d="M595.385 336.348V430.533H579.274V336.348C579.274 332.868 581.435 329.77 584.655 328.635V319.232C584.655 317.613 585.939 316.3 587.524 316.3C589.109 316.3 590.394 317.613 590.394 319.232V328.794C593.399 330.05 595.368 333.031 595.385 336.348Z" fill="#505F98"/>
<path d="M595.385 336.348V430.533H579.274V336.348C579.274 332.868 581.435 329.77 584.655 328.635V319.232C584.655 317.613 585.939 316.3 587.524 316.3C589.109 316.3 590.394 317.613 590.394 319.232V328.794C593.399 330.05 595.368 333.031 595.385 336.348Z" fill="url(#paint30_linear_108_1327)"/>
<rect x="569.3" y="396.033" width="38.3599" height="6.9" rx="2.245" fill="#505F98"/>
<path d="M588.241 458.9C581.669 458.9 576.205 449.075 576.205 442.52V399.1H599.988V442.52C599.988 449.075 594.798 458.9 588.241 458.9Z" fill="#505F98"/>
<rect x="569.3" y="396.033" width="38.3599" height="6.9" rx="2.245" fill="url(#paint31_linear_108_1327)"/>
<path d="M588.241 458.9C581.669 458.9 576.205 449.214 576.205 442.752V402.933H599.988V442.752C599.988 449.214 594.798 458.9 588.241 458.9Z" fill="url(#paint32_linear_108_1327)"/>
<path d="M741.645 504.9C741.129 502.167 740.803 498.299 741.795 498.033C743.886 497.445 741.645 504.9 741.645 504.9Z" fill="#28353D"/>
<path d="M851.477 654.788C851.105 664.445 843.62 699.931 843.377 709.603C843.377 712.822 844.236 717.763 843.199 720.869C841.061 727.451 833.479 726.55 832.491 722.671L832.118 720.74C828.603 701.943 834.257 680.619 832.118 656.076C830.838 641.093 824.877 612.205 820.972 612.012C818.915 612.012 771.951 711.019 767.868 717.119C765.86 720.193 760.206 719.71 757.468 722.188C754.73 724.667 780.278 647.128 790.986 606.154C793.483 597.697 795.112 589.01 795.846 580.227C796.138 575.157 794.501 573.452 799.183 571.955C802.423 570.925 806.911 571.215 810.378 570.973C814.152 570.683 849.258 570.619 849.258 573.097C848.918 586.552 852.385 632.483 851.477 654.788Z" fill="#606161"/>
<path d="M851.477 654.788C851.105 664.445 843.62 699.931 843.377 709.603C843.377 712.822 844.236 717.763 843.199 720.869C841.061 727.451 833.479 726.55 832.491 722.671L832.118 720.74C828.603 701.943 834.257 680.619 832.118 656.076C830.838 641.093 824.877 612.205 820.972 612.012C818.915 612.012 771.951 711.019 767.868 717.119C765.86 720.193 760.206 719.71 757.468 722.188C754.73 724.667 780.278 647.128 790.986 606.154C793.483 597.697 795.112 589.01 795.846 580.227C796.138 575.157 794.501 573.452 799.183 571.955C802.423 570.925 806.911 571.215 810.378 570.973C814.152 570.683 849.258 570.619 849.258 573.097C848.918 586.552 852.385 632.483 851.477 654.788Z" fill="url(#paint33_linear_108_1327)"/>
<path d="M810.021 449.047C809.726 445.991 808.283 444.333 806.872 444.333C805.462 444.333 804.592 445.959 804.888 449.047C804.955 451.327 806.675 453.224 808.955 453.533C810.382 453.533 810.333 452.103 810.021 449.047Z" fill="#FFCD9C"/>
<path d="M834.856 449.055C835.048 445.994 836.456 444.333 837.912 444.333C839.368 444.333 840.312 445.962 840.088 449.055C840.068 451.366 838.347 453.293 836.088 453.533C834.648 453.533 834.632 452.117 834.856 449.055Z" fill="#FFCD9C"/>
<path d="M837.712 462.482C837.513 464.096 830.679 471.167 822.9 471.167C815.122 471.167 808.701 464.709 807.344 462.126C805.987 459.544 811.448 426.321 814.609 423.544C817.77 420.768 830.579 422.592 831.655 424.061C834.237 427.532 838.556 456.04 837.712 462.482Z" fill="#F4AD7D"/>
<path d="M834.497 437.416C833.439 437.923 829.287 427.345 828.416 425.569C827.546 423.793 827.686 421.969 828.743 421.462C829.8 420.954 831.355 422.001 832.226 423.761C833.097 425.521 835.539 436.924 834.497 437.416Z" fill="#FFCD9C"/>
<path d="M811.213 436.657C810.116 436.284 813.02 425.304 813.653 423.406C814.287 421.508 815.708 420.26 816.743 420.633C817.777 421.006 818.21 422.855 817.577 424.768C816.943 426.682 812.248 437.03 811.213 436.657Z" fill="#FFCD9C"/>
<path d="M815.565 461.2H832.25L834.751 477.01C825.661 481.904 820.362 481.364 813.269 475.93L815.565 461.2Z" fill="#F4AD7D"/>
<path d="M822.476 464.366C822.476 464.075 823.17 463.83 824.01 463.83C824.85 463.83 825.544 464.075 825.544 464.366C825.544 464.658 824.869 464.704 824.01 464.704C823.151 464.704 822.476 464.673 822.476 464.366Z" fill="#F4AD7D"/>
<path d="M838.601 457.219C839.233 453.452 840.263 426.476 837.737 422.906C835.21 419.335 820.085 417.026 817.792 417.583C812.656 418.827 813.553 422.496 813.553 422.496C812.027 422.519 810.532 422.931 809.215 423.692C807.453 424.871 803.747 441.872 806.706 454.73C808.035 460.511 813.271 465.54 822.313 465.785C833.449 466.08 837.837 461.887 838.601 457.219Z" fill="#606161"/>
<path d="M817.854 418.851C819.05 417.844 820.598 417.368 822.147 417.532C826.849 417.506 831.513 418.374 835.897 420.089C838.328 420.94 840.535 422.338 842.352 424.176C844.182 426.066 845.025 428.714 844.628 431.326C843.821 435.169 839.786 437.547 838.463 441.244C837.398 444.208 838.156 447.074 838.189 450.055C838.21 452.464 838.037 454.872 837.672 457.253C836.93 461.895 832.685 466.064 821.792 465.787C813.013 465.543 807.929 460.543 806.638 454.794C804.89 445.252 805.349 435.432 807.978 426.098C812.709 427.197 817.55 427.744 822.405 427.727C827.553 427.77 832.687 427.168 837.688 425.935C838.544 430.919 838.527 440.902 838.253 448.361" fill="#606161"/>
<path d="M790.922 474.198C788.29 474.418 785.753 475.295 783.543 476.748C779.757 479.731 779.47 485.296 779.534 490.14C779.404 496.851 779.869 503.56 780.923 510.188C782.057 516.267 784.118 522.105 785.811 528.055C788.48 537.737 789.881 547.728 789.98 557.774C789.98 563.291 789.884 569.354 793.318 573.668C797.072 578.351 803.716 579.265 809.69 579.602C818.172 580.099 826.685 580.163 835.166 579.811C840.853 579.554 846.906 578.993 851.411 575.496C855.004 572.706 863.422 478.288 856.889 475.898C850.356 473.508 843.328 472.899 836.396 472.321C820.855 471.006 806.224 469.964 790.922 474.198Z" fill="#505F98"/>
<path d="M839.85 669.956C839.017 680.662 837.03 719.567 837.03 719.567L831.966 719.391C828.489 700.699 834.081 679.494 831.966 655.089C830.7 640.19 824.803 611.464 820.941 611.272C822.095 601.67 828.585 603.11 828.585 603.11C833.305 610.159 837.376 617.62 840.748 625.403C844.61 635.517 840.7 659.202 839.85 669.956Z" fill="url(#paint34_linear_108_1327)"/>
<path d="M744.51 720.352C743.719 720.936 743.119 721.736 742.784 722.653C742.604 723.407 742.677 724.197 742.991 724.907C743.886 726.716 745.58 728.015 747.579 728.422C749.555 728.798 751.577 728.867 753.574 728.627L759.969 728.201C761.596 728.163 763.21 727.903 764.765 727.429C766.321 726.947 767.606 725.852 768.314 724.402C768.69 723.335 768.837 722.203 768.745 721.077C768.745 715.859 766.891 711.619 761.104 712.896C755.042 714.02 749.348 716.578 744.51 720.352Z" fill="#505F98"/>
<path d="M850.723 722.682C851.449 723.215 852 723.944 852.308 724.778C852.472 725.456 852.407 726.169 852.124 726.809C851.309 728.448 849.753 729.621 847.92 729.978C846.113 730.327 844.26 730.393 842.432 730.173L836.626 729.783C835.149 729.751 833.684 729.522 832.272 729.1C830.848 728.663 829.676 727.668 829.036 726.354C828.692 725.389 828.556 724.366 828.635 723.348C828.635 718.635 830.303 714.752 835.625 715.954C841.142 716.974 846.323 719.283 850.723 722.682Z" fill="#505F98"/>
<path d="M857.767 475.767C857.767 475.767 882.849 490.459 890.382 509.031C897.914 527.604 865.711 572.367 865.711 572.367L858.819 565.324C858.819 565.324 875.628 531.548 873.03 523.101C870.431 514.653 860.25 506.78 860.25 506.78L857.767 475.767Z" fill="#505F98"/>
<path d="M786.417 504.792C786.417 504.792 751.543 520.417 737.371 512.749C723.199 505.082 737.789 466.567 737.789 466.567L747.28 469.788C747.28 469.788 739.35 489.425 748.422 492.34C757.495 495.256 784.68 476.103 784.68 476.103L786.417 504.792Z" fill="#505F98"/>
<path d="M852.075 571.582C851.072 572.234 850.259 573.109 849.71 574.128C849.38 574.993 849.262 575.915 849.363 576.828C849.302 579.044 850.309 581.168 852.108 582.615C853.372 583.292 854.788 583.683 856.243 583.757C857.135 583.903 858.047 583.903 858.939 583.757C859.848 583.595 860.608 583.014 860.957 582.214C861.076 581.707 861.126 581.189 861.105 580.671C861.221 578.124 863.14 576.041 864.728 573.958C865.111 573.556 865.359 573.056 865.439 572.523C865.43 571.933 865.208 571.362 864.81 570.903C863.735 569.452 861.072 566.783 858.939 567.014C856.805 567.246 853.729 570.316 852.075 571.582Z" fill="#F4AD7D"/>
<path d="M753.266 460.767C753.72 460.135 754.03 459.42 754.176 458.668C754.292 457.89 753.88 457.127 753.148 456.762C751.986 456.329 750.605 457.467 749.459 456.986C749.072 456.78 748.747 456.482 748.516 456.121C747.163 454.258 746.387 452.071 746.276 449.81C746.341 448.604 746.228 447.396 745.939 446.221C745.598 445.012 744.384 444.218 743.075 444.347C741.997 444.587 741.391 445.629 740.717 446.462C740.043 447.295 738.695 448.288 737.819 449.329C736.324 451.469 735.468 453.955 735.343 456.522C734.872 459.725 734.568 463.394 736.927 465.701C738.746 467.479 744.288 469.577 746.831 468.632C749.644 467.575 751.851 463.073 753.266 460.767Z" fill="#F4AD7D"/>
<defs>
<linearGradient id="paint0_linear_108_1327" x1="599.792" y1="394.627" x2="649.437" y2="296.06" gradientUnits="userSpaceOnUse">
<stop stop-color="#010101" stop-opacity="0.01"/>
<stop offset="0.95" stop-color="#010101"/>
</linearGradient>
<linearGradient id="paint1_linear_108_1327" x1="642.082" y1="391.713" x2="713.27" y2="252.494" gradientUnits="userSpaceOnUse">
<stop stop-color="#010101" stop-opacity="0.01"/>
<stop offset="0.95" stop-color="#010101"/>
</linearGradient>
<linearGradient id="paint2_linear_108_1327" x1="734.069" y1="398.404" x2="839.373" y2="160.627" gradientUnits="userSpaceOnUse">
<stop stop-color="#010101" stop-opacity="0.01"/>
<stop offset="0.95" stop-color="#010101"/>
</linearGradient>
<linearGradient id="paint3_linear_108_1327" x1="832.075" y1="411.047" x2="989.188" y2="68.0369" gradientUnits="userSpaceOnUse">
<stop stop-color="#010101" stop-opacity="0.01"/>
<stop offset="0.36" stop-color="#010101" stop-opacity="0.36"/>
<stop offset="0.95" stop-color="#010101"/>
</linearGradient>
<linearGradient id="paint4_linear_108_1327" x1="718.107" y1="330.533" x2="807.93" y2="145.309" gradientUnits="userSpaceOnUse">
<stop stop-color="white" stop-opacity="0.01"/>
<stop offset="0.07" stop-color="white" stop-opacity="0.22"/>
<stop offset="0.16" stop-color="white" stop-opacity="0.45"/>
<stop offset="0.25" stop-color="white" stop-opacity="0.65"/>
<stop offset="0.33" stop-color="white" stop-opacity="0.8"/>
<stop offset="0.4" stop-color="white" stop-opacity="0.91"/>
<stop offset="0.46" stop-color="white" stop-opacity="0.98"/>
<stop offset="0.51" stop-color="white"/>
</linearGradient>
<linearGradient id="paint5_linear_108_1327" x1="658.249" y1="289.807" x2="707.466" y2="185.625" gradientUnits="userSpaceOnUse">
<stop stop-color="white" stop-opacity="0.01"/>
<stop offset="0.07" stop-color="white" stop-opacity="0.22"/>
<stop offset="0.16" stop-color="white" stop-opacity="0.45"/>
<stop offset="0.25" stop-color="white" stop-opacity="0.65"/>
<stop offset="0.33" stop-color="white" stop-opacity="0.8"/>
<stop offset="0.4" stop-color="white" stop-opacity="0.91"/>
<stop offset="0.46" stop-color="white" stop-opacity="0.98"/>
<stop offset="0.51" stop-color="white"/>
</linearGradient>
<linearGradient id="paint6_linear_108_1327" x1="892.329" y1="644.68" x2="900.319" y2="547.515" gradientUnits="userSpaceOnUse">
<stop stop-color="#010101" stop-opacity="0.01"/>
<stop offset="0.95" stop-color="#010101"/>
</linearGradient>
<linearGradient id="paint7_linear_108_1327" x1="584.349" y1="289.863" x2="582.268" y2="634.521" gradientUnits="userSpaceOnUse">
<stop stop-color="white" stop-opacity="0.01"/>
<stop offset="0.07" stop-color="white" stop-opacity="0.22"/>
<stop offset="0.16" stop-color="white" stop-opacity="0.45"/>
<stop offset="0.25" stop-color="white" stop-opacity="0.65"/>
<stop offset="0.33" stop-color="white" stop-opacity="0.8"/>
<stop offset="0.4" stop-color="white" stop-opacity="0.91"/>
<stop offset="0.46" stop-color="white" stop-opacity="0.98"/>
<stop offset="0.51" stop-color="white"/>
</linearGradient>
<linearGradient id="paint8_linear_108_1327" x1="389.881" y1="625.323" x2="389.958" y2="734.368" gradientUnits="userSpaceOnUse">
<stop stop-color="#010101" stop-opacity="0.01"/>
<stop offset="0.95" stop-color="#010101"/>
</linearGradient>
<linearGradient id="paint9_linear_108_1327" x1="1273.4" y1="430.508" x2="1299.61" y2="118.389" gradientUnits="userSpaceOnUse">
<stop stop-color="white" stop-opacity="0.01"/>
<stop offset="0.07" stop-color="white" stop-opacity="0.22"/>
<stop offset="0.16" stop-color="white" stop-opacity="0.45"/>
<stop offset="0.25" stop-color="white" stop-opacity="0.65"/>
<stop offset="0.33" stop-color="white" stop-opacity="0.8"/>
<stop offset="0.4" stop-color="white" stop-opacity="0.91"/>
<stop offset="0.46" stop-color="white" stop-opacity="0.98"/>
<stop offset="0.51" stop-color="white"/>
</linearGradient>
<linearGradient id="paint10_linear_108_1327" x1="639.456" y1="346.1" x2="745.262" y2="628.442" gradientUnits="userSpaceOnUse">
<stop stop-color="white" stop-opacity="0.01"/>
<stop offset="0.07" stop-color="white" stop-opacity="0.22"/>
<stop offset="0.16" stop-color="white" stop-opacity="0.45"/>
<stop offset="0.25" stop-color="white" stop-opacity="0.65"/>
<stop offset="0.33" stop-color="white" stop-opacity="0.8"/>
<stop offset="0.4" stop-color="white" stop-opacity="0.91"/>
<stop offset="0.46" stop-color="white" stop-opacity="0.98"/>
<stop offset="0.51" stop-color="white"/>
</linearGradient>
<linearGradient id="paint11_linear_108_1327" x1="718.83" y1="363.826" x2="716.28" y2="580.569" gradientUnits="userSpaceOnUse">
<stop stop-color="white" stop-opacity="0.01"/>
<stop offset="0.07" stop-color="white" stop-opacity="0.22"/>
<stop offset="0.16" stop-color="white" stop-opacity="0.45"/>
<stop offset="0.25" stop-color="white" stop-opacity="0.65"/>
<stop offset="0.33" stop-color="white" stop-opacity="0.8"/>
<stop offset="0.4" stop-color="white" stop-opacity="0.91"/>
<stop offset="0.46" stop-color="white" stop-opacity="0.98"/>
<stop offset="0.51" stop-color="white"/>
</linearGradient>
<linearGradient id="paint12_linear_108_1327" x1="960.969" y1="510.807" x2="975.68" y2="67.7352" gradientUnits="userSpaceOnUse">
<stop stop-color="#010101" stop-opacity="0.01"/>
<stop offset="0.95" stop-color="#010101"/>
</linearGradient>
<linearGradient id="paint13_linear_108_1327" x1="960.316" y1="511.068" x2="975.027" y2="67.9962" gradientUnits="userSpaceOnUse">
<stop stop-color="#010101" stop-opacity="0.01"/>
<stop offset="0.95" stop-color="#010101"/>
</linearGradient>
<linearGradient id="paint14_linear_108_1327" x1="888.112" y1="509.005" x2="902.845" y2="65.9337" gradientUnits="userSpaceOnUse">
<stop stop-color="#010101" stop-opacity="0.01"/>
<stop offset="0.95" stop-color="#010101"/>
</linearGradient>
<linearGradient id="paint15_linear_108_1327" x1="887.459" y1="509.266" x2="902.192" y2="66.1947" gradientUnits="userSpaceOnUse">
<stop stop-color="#010101" stop-opacity="0.01"/>
<stop offset="0.95" stop-color="#010101"/>
</linearGradient>
<linearGradient id="paint16_linear_108_1327" x1="959.597" y1="512.218" x2="974.329" y2="69.1471" gradientUnits="userSpaceOnUse">
<stop stop-color="#010101" stop-opacity="0.01"/>
<stop offset="0.95" stop-color="#010101"/>
</linearGradient>
<linearGradient id="paint17_linear_108_1327" x1="887.507" y1="510.448" x2="902.217" y2="67.3763" gradientUnits="userSpaceOnUse">
<stop stop-color="#010101" stop-opacity="0.01"/>
<stop offset="0.95" stop-color="#010101"/>
</linearGradient>
<linearGradient id="paint18_linear_108_1327" x1="924.299" y1="511.337" x2="939.032" y2="68.2826" gradientUnits="userSpaceOnUse">
<stop stop-color="#010101" stop-opacity="0.01"/>
<stop offset="0.95" stop-color="#010101"/>
</linearGradient>
<linearGradient id="paint19_linear_108_1327" x1="925.692" y1="509.38" x2="940.424" y2="66.3088" gradientUnits="userSpaceOnUse">
<stop stop-color="#010101" stop-opacity="0.01"/>
<stop offset="0.95" stop-color="#010101"/>
</linearGradient>
<linearGradient id="paint20_linear_108_1327" x1="661.132" y1="520.54" x2="839.177" y2="686.672" gradientUnits="userSpaceOnUse">
<stop stop-color="white" stop-opacity="0.01"/>
<stop offset="0.07" stop-color="white" stop-opacity="0.22"/>
<stop offset="0.16" stop-color="white" stop-opacity="0.45"/>
<stop offset="0.25" stop-color="white" stop-opacity="0.65"/>
<stop offset="0.33" stop-color="white" stop-opacity="0.8"/>
<stop offset="0.4" stop-color="white" stop-opacity="0.91"/>
<stop offset="0.46" stop-color="white" stop-opacity="0.98"/>
<stop offset="0.51" stop-color="white"/>
</linearGradient>
<linearGradient id="paint21_linear_108_1327" x1="928.597" y1="352.229" x2="927.228" y2="455.853" gradientUnits="userSpaceOnUse">
<stop stop-color="white" stop-opacity="0.01"/>
<stop offset="0.07" stop-color="white" stop-opacity="0.22"/>
<stop offset="0.16" stop-color="white" stop-opacity="0.45"/>
<stop offset="0.25" stop-color="white" stop-opacity="0.65"/>
<stop offset="0.33" stop-color="white" stop-opacity="0.8"/>
<stop offset="0.4" stop-color="white" stop-opacity="0.91"/>
<stop offset="0.46" stop-color="white" stop-opacity="0.98"/>
<stop offset="0.51" stop-color="white"/>
</linearGradient>
<linearGradient id="paint22_linear_108_1327" x1="928.597" y1="436.562" x2="927.228" y2="540.186" gradientUnits="userSpaceOnUse">
<stop stop-color="white" stop-opacity="0.01"/>
<stop offset="0.07" stop-color="white" stop-opacity="0.22"/>
<stop offset="0.16" stop-color="white" stop-opacity="0.45"/>
<stop offset="0.25" stop-color="white" stop-opacity="0.65"/>
<stop offset="0.33" stop-color="white" stop-opacity="0.8"/>
<stop offset="0.4" stop-color="white" stop-opacity="0.91"/>
<stop offset="0.46" stop-color="white" stop-opacity="0.98"/>
<stop offset="0.51" stop-color="white"/>
</linearGradient>
<linearGradient id="paint23_linear_108_1327" x1="649.652" y1="379.382" x2="649.639" y2="393.336" gradientUnits="userSpaceOnUse">
<stop stop-color="white" stop-opacity="0.01"/>
<stop offset="0.07" stop-color="white" stop-opacity="0.22"/>
<stop offset="0.16" stop-color="white" stop-opacity="0.45"/>
<stop offset="0.25" stop-color="white" stop-opacity="0.65"/>
<stop offset="0.33" stop-color="white" stop-opacity="0.8"/>
<stop offset="0.4" stop-color="white" stop-opacity="0.91"/>
<stop offset="0.46" stop-color="white" stop-opacity="0.98"/>
<stop offset="0.51" stop-color="white"/>
</linearGradient>
<linearGradient id="paint24_linear_108_1327" x1="587.782" y1="419.84" x2="674.746" y2="351.287" gradientUnits="userSpaceOnUse">
<stop stop-color="#010101" stop-opacity="0.01"/>
<stop offset="0.95" stop-color="#010101"/>
</linearGradient>
<linearGradient id="paint25_linear_108_1327" x1="625.992" y1="435.124" x2="749.637" y2="339.198" gradientUnits="userSpaceOnUse">
<stop stop-color="#010101" stop-opacity="0.01"/>
<stop offset="0.95" stop-color="#010101"/>
</linearGradient>
<linearGradient id="paint26_linear_108_1327" x1="706.449" y1="480.176" x2="902.842" y2="309.421" gradientUnits="userSpaceOnUse">
<stop stop-color="#010101" stop-opacity="0.01"/>
<stop offset="0.95" stop-color="#010101"/>
</linearGradient>
<linearGradient id="paint27_linear_108_1327" x1="789.831" y1="533.163" x2="1077.85" y2="289.045" gradientUnits="userSpaceOnUse">
<stop stop-color="#010101" stop-opacity="0.01"/>
<stop offset="0.36" stop-color="#010101" stop-opacity="0.36"/>
<stop offset="0.95" stop-color="#010101"/>
</linearGradient>
<linearGradient id="paint28_linear_108_1327" x1="673.496" y1="351.376" x2="813.75" y2="250.614" gradientUnits="userSpaceOnUse">
<stop stop-color="white" stop-opacity="0.01"/>
<stop offset="0.07" stop-color="white" stop-opacity="0.22"/>
<stop offset="0.16" stop-color="white" stop-opacity="0.45"/>
<stop offset="0.25" stop-color="white" stop-opacity="0.65"/>
<stop offset="0.33" stop-color="white" stop-opacity="0.8"/>
<stop offset="0.4" stop-color="white" stop-opacity="0.91"/>
<stop offset="0.46" stop-color="white" stop-opacity="0.98"/>
<stop offset="0.51" stop-color="white"/>
</linearGradient>
<linearGradient id="paint29_linear_108_1327" x1="683.933" y1="349.663" x2="772.758" y2="276.171" gradientUnits="userSpaceOnUse">
<stop stop-color="white" stop-opacity="0.01"/>
<stop offset="0.07" stop-color="white" stop-opacity="0.22"/>
<stop offset="0.16" stop-color="white" stop-opacity="0.45"/>
<stop offset="0.25" stop-color="white" stop-opacity="0.65"/>
<stop offset="0.33" stop-color="white" stop-opacity="0.8"/>
<stop offset="0.4" stop-color="white" stop-opacity="0.91"/>
<stop offset="0.46" stop-color="white" stop-opacity="0.98"/>
<stop offset="0.51" stop-color="white"/>
</linearGradient>
<linearGradient id="paint30_linear_108_1327" x1="580.883" y1="477.104" x2="610.158" y2="477.121" gradientUnits="userSpaceOnUse">
<stop stop-color="white" stop-opacity="0.01"/>
<stop offset="0.07" stop-color="white" stop-opacity="0.22"/>
<stop offset="0.16" stop-color="white" stop-opacity="0.45"/>
<stop offset="0.25" stop-color="white" stop-opacity="0.65"/>
<stop offset="0.33" stop-color="white" stop-opacity="0.8"/>
<stop offset="0.4" stop-color="white" stop-opacity="0.91"/>
<stop offset="0.46" stop-color="white" stop-opacity="0.98"/>
<stop offset="0.51" stop-color="white"/>
</linearGradient>
<linearGradient id="paint31_linear_108_1327" x1="524.692" y1="402.32" x2="533.625" y2="432.015" gradientUnits="userSpaceOnUse">
<stop stop-color="#010101" stop-opacity="0.01"/>
<stop offset="0.95" stop-color="#010101"/>
</linearGradient>
<linearGradient id="paint32_linear_108_1327" x1="543.704" y1="516.348" x2="621.063" y2="517.915" gradientUnits="userSpaceOnUse">
<stop stop-color="#010101" stop-opacity="0.01"/>
<stop offset="0.95" stop-color="#010101"/>
</linearGradient>
<linearGradient id="paint33_linear_108_1327" x1="852.496" y1="637.159" x2="778.824" y2="510.828" gradientUnits="userSpaceOnUse">
<stop stop-color="#010101" stop-opacity="0.01"/>
<stop offset="0.95" stop-color="#010101"/>
</linearGradient>
<linearGradient id="paint34_linear_108_1327" x1="853.279" y1="283.25" x2="720.733" y2="286.984" gradientUnits="userSpaceOnUse">
<stop stop-color="#010101" stop-opacity="0.01"/>
<stop offset="0.95" stop-color="#010101"/>
</linearGradient>
</defs>
</svg>
